<?xml version="1.0" encoding="utf-8"?>
<!-- Generator: Adobe Illustrator 26.3.1, SVG Export Plug-In . SVG Version: 6.00 Build 0)  -->
<svg version="1.1" id="Layer_1" xmlns="http://www.w3.org/2000/svg" xmlns:xlink="http://www.w3.org/1999/xlink" x="0px" y="0px"
	 viewBox="0 0 2048 2048" style="enable-background:new 0 0 2048 2048;" xml:space="preserve">
<style type="text/css">
	.st0{fill:#3A80C3;}
	.st1{fill:#BADC19;}
</style>
<rect class="st0" width="2048" height="2048"/>
<path class="st1" d="M1477.1,1080.7c-18.2-33.2-44.1-59.9-77.7-80c29.2-19.4,51.1-42.1,65.7-68c14.6-25.9,21.9-55.4,21.9-88.5
	c0-60.7-21-110.6-63.1-149.6c-42.1-39-96.3-58.6-162.5-58.6c-66.3,0-120.3,19.5-162.1,58.6c-41.8,39-62.7,88.9-62.7,149.6
	c0,33.1,7.2,62.6,21.7,88.5c14.4,25.9,36.4,48.6,66,68c-33.6,20.1-59.5,46.8-77.7,80c-18.2,33.2-27.3,70.3-27.3,111.2
	c0,20.4,2.3,39.6,6.4,57.8h-223l89.5-107.9c42.1-50.5,73.2-97.8,93.3-141.9c20.1-44.1,30.2-86.9,30.2-128.1
	c0-67.2-22.3-123.3-66.9-168.3c-44.6-45-99.7-67.5-165.4-67.5c-54.6,0-102.3,15.4-143,46.3c-40.7,30.9-70.9,74.4-90.7,130.7
	L680.2,883c5.7-28.3,17-50.7,33.9-67.3c17-16.5,37.1-24.8,60.3-24.8c25.7,0,46.7,8.4,62.9,25.3c16.2,16.9,24.3,38.4,24.3,64.7
	c0,32.4-22.9,78.1-68.8,137.1l-1.9,2.6L544,1341.8v59.8h480.5l16.3-107.2c11.2,24,26.6,45.9,46.7,65.3c45.5,44,103.5,66,173.8,66
	c70.4,0,128.5-22.1,174.3-66.2c45.9-44.1,68.8-100,68.8-167.5C1504.5,1151,1495.3,1113.9,1477.1,1080.7z M1200.8,792.8
	c16.2-15.9,36.4-23.8,60.5-23.8c24.5,0,44.9,7.9,61.2,23.8c16.3,15.9,24.5,35.5,24.5,59.1c0,21.5-7.2,40.1-21.4,55.7
	c-14.3,15.7-35.7,28.5-64.3,38.4c-28.6-10.6-49.9-23.6-63.8-39.1c-14-15.5-21-33.8-21-55C1176.6,828.3,1184.6,808.6,1200.8,792.8z
	 M1325.2,1251.3c-17.1,17.7-38.4,26.6-63.8,26.6c-25.1,0-46.3-8.9-63.4-26.6c-17.1-17.7-25.7-39.6-25.7-65.5
	c0-26.6,7.4-48.7,22.1-66.2c14.8-17.6,37.1-30.8,66.9-39.6c31.1,9.6,53.8,22.9,68.1,39.9c14.3,17.1,21.4,39,21.4,66
	C1350.9,1211.7,1342.3,1233.5,1325.2,1251.3z"/>
</svg>
