<?xml version="1.0" encoding="utf-8"?>
<!-- Generator: Adobe Illustrator 26.3.1, SVG Export Plug-In . SVG Version: 6.00 Build 0)  -->
<svg version="1.1" id="Layer_1" xmlns="http://www.w3.org/2000/svg" xmlns:xlink="http://www.w3.org/1999/xlink" x="0px" y="0px"
	 viewBox="0 0 2048 2048" style="enable-background:new 0 0 2048 2048;" xml:space="preserve">
<style type="text/css">
	.st0{fill:#3A80C3;}
	.st1{fill:#BADC19;}
</style>
<g>
	<circle class="st0" cx="1018.9" cy="1018.9" r="1018.9"/>
	<path class="st1" d="M1591.3,1083.8c-22.9-43.3-55.5-78-97.7-104.2c36.7-25.3,64.2-54.8,82.6-88.5c18.3-33.7,27.5-72.1,27.5-115.2
		c0-79-26.4-143.9-79.3-194.7c-52.9-50.8-121-76.2-204.2-76.2c-83.3,0-151.2,25.4-203.6,76.2c-52.5,50.8-78.7,115.7-78.7,194.7
		c0,43.1,9.1,81.5,27.2,115.2c18.1,33.7,45.8,63.2,82.9,88.5c-42.2,26.2-74.8,60.9-97.7,104.2c-22.9,43.3-34.3,91.5-34.3,144.8
		c0,26.5,2.9,51.5,8.1,75.2H743.9l112.5-140.4c52.9-65.7,91.9-127.3,117.2-184.7c25.3-57.5,37.9-113.1,37.9-166.8
		c0-87.4-28-160.4-84.1-219c-56-58.6-125.3-87.9-207.8-87.9c-68.7,0-128.6,20.1-179.7,60.2c-51.1,40.2-89.1,96.9-114,170.1l164,91.2
		c7.1-36.8,21.3-66,42.6-87.5c21.3-21.5,46.6-32.3,75.8-32.3c32.3,0,58.7,11,79,33c20.3,22,30.5,50,30.5,84.2
		c0,42.2-28.8,101.6-86.4,178.4l-2.4,3.3l-310.2,418.1v77.9h603.8l20.5-139.5c14.1,31.3,33.4,59.7,58.7,84.9
		c57.2,57.3,130,85.9,218.4,85.9c88.4,0,161.4-28.7,219-86.2c57.6-57.5,86.4-130.1,86.4-218
		C1625.6,1175.3,1614.2,1127.1,1591.3,1083.8z M1244.1,709c20.3-20.6,45.7-31,76.1-31c30.8,0,56.4,10.3,77,31
		c20.5,20.6,30.8,46.3,30.8,76.9c0,28-9,52.2-26.9,72.6c-18,20.4-44.9,37.1-80.8,49.9c-35.9-13.7-62.7-30.7-80.2-50.9
		c-17.6-20.2-26.3-44-26.3-71.6C1213.6,755.3,1223.8,729.7,1244.1,709z M1400.4,1305.8c-21.5,23.1-48.2,34.6-80.2,34.6
		c-31.6,0-58.1-11.5-79.6-34.6c-21.5-23.1-32.3-51.5-32.3-85.2c0-34.6,9.3-63.3,27.8-86.2c18.5-22.8,46.6-40,84.1-51.6
		c39.1,12.4,67.6,29.7,85.5,51.9c18,22.2,26.9,50.8,26.9,85.9C1432.7,1254.3,1421.9,1282.8,1400.4,1305.8z"/>
</g>
</svg>
