<svg xmlns="http://www.w3.org/2000/svg" viewBox="0 0 57.67 57.67"><defs><style>.cls-1{fill:#3a80c3;}.cls-2{fill:#badc19;}</style></defs><g id="Layer_2" data-name="Layer 2"><g id="icon"><circle class="cls-1" cx="28.84" cy="28.84" r="28.84"/><path class="cls-2" d="M45,30.67a7.69,7.69,0,0,0-2.77-3,7.28,7.28,0,0,0,2.34-2.5A6.72,6.72,0,0,0,45.39,22a7.3,7.3,0,0,0-2.25-5.51,8,8,0,0,0-5.78-2.16,7.93,7.93,0,0,0-5.76,2.16A7.32,7.32,0,0,0,29.37,22a6.82,6.82,0,0,0,.77,3.26,7.22,7.22,0,0,0,2.35,2.5,7.69,7.69,0,0,0-2.77,3,8.73,8.73,0,0,0-1,4.1A9.73,9.73,0,0,0,29,36.9H21.05l3.18-4a23.46,23.46,0,0,0,3.32-5.22A11.63,11.63,0,0,0,28.62,23a8.6,8.6,0,0,0-2.38-6.2,7.79,7.79,0,0,0-5.88-2.49A8,8,0,0,0,15.28,16a9.94,9.94,0,0,0-3.22,4.81l4.64,2.58a4.71,4.71,0,0,1,1.2-2.48,3.07,3.07,0,0,1,4.38,0,3.36,3.36,0,0,1,.87,2.39q0,1.79-2.45,5l-.07.1L11.85,40.29v2.2H28.94l.58-3.94A8.14,8.14,0,0,0,31.18,41a8.37,8.37,0,0,0,6.18,2.43A8.36,8.36,0,0,0,46,34.77,8.73,8.73,0,0,0,45,30.67Zm-9.83-10.6a2.87,2.87,0,0,1,2.15-.88,3,3,0,0,1,3,3,3,3,0,0,1-.76,2.06,5.54,5.54,0,0,1-2.29,1.41,5.7,5.7,0,0,1-2.27-1.44,3,3,0,0,1-.74-2A3,3,0,0,1,35.21,20.07ZM39.63,37a3.1,3.1,0,0,1-4.52,0,3.42,3.42,0,0,1-.91-2.42A3.78,3.78,0,0,1,35,32.1a4.87,4.87,0,0,1,2.38-1.46,5.06,5.06,0,0,1,2.42,1.47,3.74,3.74,0,0,1,.77,2.43A3.43,3.43,0,0,1,39.63,37Z"/></g></g></svg>