<svg xmlns="http://www.w3.org/2000/svg" viewBox="0 0 234.33 57.67"><defs><style>.cls-1{fill:#3a80c3;}.cls-2{fill:#badc19;}</style></defs><g id="Layer_2" data-name="Layer 2"><g id="logo"><circle class="cls-1" cx="205.49" cy="28.84" r="28.84"/><path class="cls-2" d="M221.69,30.67a7.74,7.74,0,0,0-2.76-3,7.34,7.34,0,0,0,2.33-2.5A6.72,6.72,0,0,0,222,22a7.32,7.32,0,0,0-2.24-5.51A8,8,0,0,0,214,14.29a7.91,7.91,0,0,0-5.76,2.16A7.32,7.32,0,0,0,206,22a6.71,6.71,0,0,0,.77,3.26,7.09,7.09,0,0,0,2.34,2.5,7.74,7.74,0,0,0-2.76,3,8.62,8.62,0,0,0-1,4.1,9.73,9.73,0,0,0,.23,2.13h-7.93l3.18-4a23.83,23.83,0,0,0,3.32-5.22A11.79,11.79,0,0,0,205.28,23a8.6,8.6,0,0,0-2.38-6.2A7.82,7.82,0,0,0,197,14.29,8,8,0,0,0,191.94,16a10,10,0,0,0-3.23,4.81l4.64,2.58a4.65,4.65,0,0,1,1.21-2.48,3.07,3.07,0,0,1,4.38,0,3.4,3.4,0,0,1,.86,2.39q0,1.79-2.44,5l-.07.1-8.78,11.83v2.2H205.6l.58-3.94a8,8,0,0,0,1.66,2.4,8.64,8.64,0,0,0,14.82-6.18A8.62,8.62,0,0,0,221.69,30.67Zm-9.82-10.6a2.87,2.87,0,0,1,2.15-.88,3,3,0,0,1,3,3,3,3,0,0,1-.77,2.06A5.5,5.5,0,0,1,214,25.71a5.56,5.56,0,0,1-2.27-1.44,3.13,3.13,0,0,1,.12-4.2ZM216.29,37a3.11,3.11,0,0,1-4.53,0,3.46,3.46,0,0,1-.91-2.42,3.73,3.73,0,0,1,.79-2.44A4.83,4.83,0,0,1,214,30.64a5.11,5.11,0,0,1,2.42,1.47,3.74,3.74,0,0,1,.76,2.43A3.42,3.42,0,0,1,216.29,37Z"/><path class="cls-2" d="M116.24,51.14V8.83h26.29v8.61H126.28v8.43h14.53v8.55H126.28V51.14Z"/><path class="cls-2" d="M145.67,51.14V8.83h10.1V51.14Z"/><path class="cls-2" d="M171.64,51.14V17.67H158.19V8.83h36.93v8.84H181.73V51.14Z"/><path class="cls-1" d="M0,51.14V7.46H1L27.31,32.14V8.83h9.31V52.74h-.88L9.31,28.06V51.14Z"/><path class="cls-1" d="M39.78,15.05a5,5,0,1,1,10,0,5,5,0,0,1-1.46,3.59,5,5,0,0,1-7.09,0A4.9,4.9,0,0,1,39.78,15.05Zm9.69,36.09H40.22V24.85l9.25-1.25Z"/><path class="cls-1" d="M56.24,42.3V31.76H52.42V24.85h3.82V17l9.34-1.25v9.13h6.21v6.91H65.58V42.94a10.4,10.4,0,0,0,1,5.15A8.61,8.61,0,0,0,70.16,51l-10.39.7A5.38,5.38,0,0,1,57,48.94Q56.24,47.08,56.24,42.3Z"/><path class="cls-1" d="M83.5,51.14H74.31V24.85h8.55L83,29.46a10.63,10.63,0,0,1,3.69-4A10.25,10.25,0,0,1,92,24.18h.73V34h-2Q86.45,34,85,35T83.5,39.67Z"/><path class="cls-1" d="M91.21,38a13.92,13.92,0,0,1,4.1-10.33,15.37,15.37,0,0,1,20.79,0A13.9,13.9,0,0,1,120.22,38a13.94,13.94,0,0,1-4.12,10.34,15.28,15.28,0,0,1-20.77,0A13.94,13.94,0,0,1,91.21,38Zm9.34,0A9.16,9.16,0,0,0,102,43.39a4.33,4.33,0,0,0,7.38,0,9.27,9.27,0,0,0,1.44-5.4,9.26,9.26,0,0,0-1.44-5.38,4.31,4.31,0,0,0-7.38,0A9.19,9.19,0,0,0,100.55,38Z"/></g></g></svg>